# This file uses centimeters as units for non-parametric coordinates.

mtllib ARtest_3_30.mtl
g default
v 0.662727 0.483656 0.831776
v 0.662727 0.673823 0.831776
v -0.418778 0.483656 0.831776
v -0.418778 0.673823 0.831776
v -0.418778 0.483656 0.641608
v -0.418778 0.673823 0.641608
v 0.662727 0.483656 0.641608
v 0.662727 0.673823 0.641608
v 0.498036 0.673823 0.641608
v 0.498036 0.483656 0.641608
v 0.498036 0.483656 0.831776
v 0.498036 0.673823 0.831776
v 0.498036 0.673823 0.041662
v 0.498036 0.483656 0.041662
v 0.662727 0.673823 0.041662
v 0.662727 0.483656 0.041662
vt 0.375000 0.000000
vt 0.625000 0.000000
vt 0.375000 0.250000
vt 0.625000 0.250000
vt 0.375000 0.500000
vt 0.625000 0.500000
vt 0.375000 0.750000
vt 0.625000 0.750000
vt 0.375000 1.000000
vt 0.625000 1.000000
vt 0.875000 0.000000
vt 0.875000 0.250000
vt 0.125000 0.000000
vt 0.125000 0.250000
vt 0.625000 0.711930
vt 0.875000 0.038070
vt 0.125000 0.038070
vt 0.375000 0.711930
vt 0.375000 0.038070
vt 0.625000 0.038070
vt 0.375000 0.711930
vt 0.625000 0.711930
vt 0.625000 0.750000
vt 0.375000 0.750000
vn 0.000000 0.000000 1.000000
vn 0.000000 0.000000 1.000000
vn 0.000000 0.000000 1.000000
vn 0.000000 0.000000 1.000000
vn -1.000000 0.000000 0.000000
vn -1.000000 0.000000 0.000000
vn -1.000000 0.000000 0.000000
vn -1.000000 0.000000 0.000000
vn 0.000000 -0.000000 -1.000000
vn 0.000000 -0.000000 -1.000000
vn 0.000000 -0.000000 -1.000000
vn 0.000000 -0.000000 -1.000000
vn 1.000000 -0.000000 0.000000
vn 1.000000 -0.000000 0.000000
vn 1.000000 -0.000000 0.000000
vn 1.000000 -0.000000 0.000000
vn 0.000000 1.000000 0.000000
vn 0.000000 1.000000 0.000000
vn 0.000000 1.000000 0.000000
vn 0.000000 1.000000 0.000000
vn -0.000000 -1.000000 0.000000
vn -0.000000 -1.000000 0.000000
vn -0.000000 -1.000000 0.000000
vn -0.000000 -1.000000 0.000000
vn 0.000000 0.000000 -1.000000
vn 0.000000 0.000000 -1.000000
vn 0.000000 0.000000 -1.000000
vn 0.000000 0.000000 -1.000000
vn -0.000000 -1.000000 0.000000
vn -0.000000 -1.000000 0.000000
vn 0.000000 0.000000 1.000000
vn 0.000000 0.000000 1.000000
vn 0.000000 1.000000 0.000000
vn 0.000000 1.000000 0.000000
vn -1.000000 0.000000 0.000000
vn -1.000000 0.000000 0.000000
vn -1.000000 0.000000 0.000000
vn -1.000000 0.000000 0.000000
vn 0.000000 1.000000 0.000000
vn 0.000000 1.000000 0.000000
vn 1.000000 -0.000000 0.000000
vn 1.000000 -0.000000 0.000000
vn -0.000000 -1.000000 0.000000
vn -0.000000 -1.000000 0.000000
s 1
g pCube1
usemtl lambert3SG
f 11/19/1 12/20/2 4/4/3 3/3/4
s off
f 3/3/5 4/4/6 6/6/7 5/5/8
f 5/5/9 6/6/10 9/15/11 10/18/12
s 2
f 7/7/13 8/8/14 2/10/15 1/9/16
s 3
f 12/20/17 9/16/18 6/12/19 4/4/20
s 4
f 10/17/21 11/19/22 3/3/23 5/14/24
s off
f 14/21/25 13/22/26 15/23/27 16/24/28
s 4
f 7/13/29 1/1/30 11/19/22 10/17/21
s 1
f 1/1/31 2/2/32 12/20/2 11/19/1
s 3
f 2/2/33 8/11/34 9/16/18 12/20/17
s off
f 10/18/35 9/15/36 13/22/37 14/21/38
s 3
f 9/15/18 8/8/34 15/23/39 13/22/40
s 2
f 8/8/14 7/7/13 16/24/41 15/23/42
s 4
f 7/7/29 10/18/21 14/21/43 16/24/44
g default
v -0.451001 0.483656 -0.452265
v -0.451001 0.673823 -0.452265
v 0.630488 0.483656 -0.458095
v 0.630488 0.673823 -0.458095
v 0.631514 0.483656 -0.267931
v 0.631514 0.673823 -0.267931
v -0.449976 0.483656 -0.262100
v -0.449976 0.673823 -0.262100
v -0.285287 0.673823 -0.262988
v -0.285287 0.483656 -0.262988
v -0.286312 0.483656 -0.453153
v -0.286312 0.673823 -0.453153
v -0.282592 0.673823 0.236785
v -0.282592 0.483656 0.236785
v -0.447281 0.673823 0.237673
v -0.447281 0.483656 0.237673
v -0.453605 0.483656 -0.935178
v -0.453605 0.673823 -0.935178
v -0.288916 0.673823 -0.936066
v -0.288916 0.483656 -0.936066
vt 0.375000 0.000000
vt 0.625000 0.000000
vt 0.375000 0.250000
vt 0.625000 0.250000
vt 0.375000 0.500000
vt 0.625000 0.500000
vt 0.375000 0.750000
vt 0.625000 0.750000
vt 0.375000 1.000000
vt 0.625000 1.000000
vt 0.875000 0.000000
vt 0.875000 0.250000
vt 0.125000 0.000000
vt 0.125000 0.250000
vt 0.625000 0.711930
vt 0.875000 0.038070
vt 0.125000 0.038070
vt 0.375000 0.711930
vt 0.375000 0.038070
vt 0.625000 0.038070
vt 0.375000 0.711930
vt 0.625000 0.711930
vt 0.625000 0.750000
vt 0.375000 0.750000
vt 0.375000 0.000000
vt 0.625000 0.000000
vt 0.625000 0.038070
vt 0.375000 0.038070
vn -0.005391 0.000000 -0.999986
vn -0.005391 0.000000 -0.999986
vn -0.005391 0.000000 -0.999986
vn -0.005391 0.000000 -0.999986
vn 0.999986 -0.000000 -0.005391
vn 0.999986 -0.000000 -0.005391
vn 0.999986 -0.000000 -0.005391
vn 0.999986 -0.000000 -0.005391
vn 0.005391 -0.000000 0.999986
vn 0.005391 -0.000000 0.999986
vn 0.005391 -0.000000 0.999986
vn 0.005391 -0.000000 0.999986
vn -0.999985 0.000000 0.005391
vn -0.999985 0.000000 0.005391
vn -0.999985 0.000000 0.005392
vn -0.999985 0.000000 0.005392
vn 0.000000 1.000000 -0.000000
vn 0.000000 1.000000 -0.000000
vn 0.000000 1.000000 -0.000000
vn 0.000000 1.000000 -0.000000
vn -0.000000 -1.000000 0.000000
vn -0.000000 -1.000000 0.000000
vn -0.000000 -1.000000 0.000000
vn -0.000000 -1.000000 0.000000
vn 0.005391 -0.000000 0.999985
vn 0.005391 -0.000000 0.999985
vn 0.005391 -0.000000 0.999985
vn 0.005391 -0.000000 0.999985
vn 0.000000 -1.000000 -0.000000
vn 0.000000 -1.000000 -0.000000
vn -0.005392 0.000000 -0.999985
vn -0.005392 0.000000 -0.999985
vn -0.005392 0.000000 -0.999985
vn -0.005392 0.000000 -0.999985
vn 0.000000 1.000000 -0.000000
vn 0.000000 1.000000 -0.000000
vn 0.999986 -0.000000 -0.005391
vn 0.999986 -0.000000 -0.005391
vn 0.999986 -0.000000 -0.005391
vn 0.999986 -0.000000 -0.005391
vn 0.000000 1.000000 -0.000000
vn 0.000000 1.000000 -0.000000
vn -0.999986 0.000000 0.005391
vn -0.999986 0.000000 0.005391
vn -0.000000 -1.000000 0.000000
vn -0.000000 -1.000000 0.000000
vn -0.999986 0.000000 0.005392
vn -0.999986 0.000000 0.005392
vn 0.000000 1.000000 -0.000000
vn 0.000000 1.000000 -0.000000
vn 0.999986 -0.000000 -0.005392
vn 0.999986 -0.000000 -0.005392
vn 0.999986 -0.000000 -0.005392
vn 0.999986 -0.000000 -0.005392
vn -0.000000 -1.000000 0.000000
vn -0.000000 -1.000000 0.000000
s off
g pCube2
usemtl lambert2SG
f 27/43/45 28/44/46 20/28/47 19/27/48
f 19/27/49 20/28/50 22/30/51 21/29/52
f 21/29/53 22/30/54 25/39/55 26/42/56
s 1
f 23/31/57 24/32/58 18/34/59 17/33/60
s 2
f 28/44/61 25/40/62 22/36/63 20/28/64
s 3
f 26/41/65 27/43/66 19/27/67 21/38/68
s off
f 30/45/69 29/46/70 31/47/71 32/48/72
s 3
f 23/37/73 17/25/74 27/43/66 26/41/65
s off
f 33/49/75 34/50/76 35/51/77 36/52/78
s 2
f 18/26/79 24/35/80 25/40/62 28/44/61
s off
f 26/42/81 25/39/82 29/46/83 30/45/84
s 2
f 25/39/62 24/32/80 31/47/85 29/46/86
s 1
f 24/32/58 23/31/57 32/48/87 31/47/88
s 3
f 23/31/73 26/42/65 30/45/89 32/48/90
s 1
f 17/25/60 18/26/59 34/50/91 33/49/92
s 2
f 18/26/79 28/44/61 35/51/93 34/50/94
s off
f 28/44/95 27/43/96 36/52/97 35/51/98
s 3
f 27/43/66 17/25/74 33/49/99 36/52/100
