# File produced by Open Asset Import Library (http://www.assimp.sf.net)
# (assimp v3.1.187496374)

mtllib ARTest_L1.obj.mtl

# 16 vertex positions
v  19.1594 0.787393 22.9824
v  19.1594 10.7874 22.9824
v  -29.0515 0.787393 22.9824
v  27.8197 0.787393 22.9824
v  27.8197 10.7874 22.9824
v  -29.0515 10.7874 22.9824
v  -29.0515 0.787393 12.9824
v  -29.0515 10.7874 12.9824
v  19.1594 0.787393 12.9824
v  19.1594 10.7874 12.9824
v  27.8197 0.787393 12.9824
v  27.8197 10.7874 12.9824
v  27.8197 10.7874 -18.5659
v  27.8197 0.787393 -18.5659
v  19.1594 10.7874 -18.5659
v  19.1594 0.787393 -18.5659

# 0 UV coordinates

# 6 vertex normals
vn 0 0 1
vn -1 0 0
vn 0 0 -1
vn 1 0 0
vn 0 1 0
vn 0 -1 0

# Mesh '<STL_BINARY>' with 28 faces
g <STL_BINARY>
usemtl DefaultMaterial
f  1//1 2//1 3//1
f  4//1 5//1 1//1
f  1//1 5//1 2//1
f  3//1 2//1 6//1
f  3//2 6//2 7//2
f  7//2 6//2 8//2
f  7//3 8//3 9//3
f  9//3 8//3 10//3
f  11//4 12//4 4//4
f  12//4 11//4 13//4
f  13//4 11//4 14//4
f  4//4 12//4 5//4
f  2//5 10//5 6//5
f  5//5 12//5 2//5
f  2//5 12//5 10//5
f  6//5 10//5 8//5
f  10//5 12//5 15//5
f  15//5 12//5 13//5
f  9//6 1//6 7//6
f  11//6 4//6 9//6
f  9//6 4//6 1//6
f  11//6 9//6 14//6
f  14//6 9//6 16//6
f  7//6 1//6 3//6
f  16//3 15//3 14//3
f  14//3 15//3 13//3
f  9//2 10//2 16//2
f  16//2 10//2 15//2

